<?xml version="1.0" encoding="utf-8"?>
<!-- Generator: Adobe Illustrator 16.0.0, SVG Export Plug-In . SVG Version: 6.00 Build 0)  -->
<!DOCTYPE svg PUBLIC "-//W3C//DTD SVG 1.1//EN" "http://www.w3.org/Graphics/SVG/1.1/DTD/svg11.dtd">
<svg version="1.1" xmlns="http://www.w3.org/2000/svg" xmlns:xlink="http://www.w3.org/1999/xlink" x="0px" y="0px"
	 width="440.137px" height="427.137px" viewBox="0 0 440.137 427.137" enable-background="new 0 0 440.137 427.137"
	 xml:space="preserve">
<g id="Ebene_1">
</g>
<g id="Ebene_4">
</g>
<g id="Ebene_2">
	<path fill-rule="evenodd" clip-rule="evenodd" fill="#4EB164" d="M221.395,363.118c-3.148-2.434-4.584,0.383-7.058,1.805
		c-2.475,1.424-19.488,10.684-24.287,12.008c-2.768,0.764-4.729,1.832-4.729,1.832c-1.826-1.162,0.854-3.697-1.641-2.078
		c-2.565,1.666-10.056,6.645-14.791,7.748c0,0-0.405-0.512,0.144-2.314c0.146-0.486-2.063-0.174-3.035-0.133
		c-8.89,0.375-10.78,6.461-15.416,5.357c0,0,1.028-1.17-0.052-1.793c-0.588-0.314-0.934-0.938-6.333,2.92
		c-2.479,1.77-5.708,2.025-6.351,1.443c0,0,1.245-2.418,0.247-2.566c-1.844-0.273-4.874,2.361-12.045,2.635
		c-7.172,0.273-21.164,4.578-26.084,7.693c0,0-5.521,3.281-9.294,3.096c0,0,4.398-6.342,12.478-10.342s15.11-10.9,16.613-14.779
		c0.235-0.604-0.063-1.424-0.063-1.424c1.5-2.172,4.415-1.885,6.688-4.189c1.636-1.66,0.909-3.355,0.909-3.355
		c0.452-0.723,2.586-1.998,4.332-2.873c4.459-2.238,8.656-0.342,8.71-5.512c0.008-0.842-1.555-2.146-1.555-2.146
		c1.583-2.129,8.76,0.813,13.198-0.791c3.191-1.152,1.73-3.521,1.73-3.521c0.594-0.609,3.676-0.998,6.912-0.896
		c8.131,0.256,12.076,0.17,17.435-1.453c5.357-1.621,23.265,1.305,26.073,1.885c0,0,1.094-2.963-18.336-6.98
		c0,0-12.854-3.777-17.665-5.646c-5.247-2.041-10.559-2.443-13.149-3.436c-2.593-0.994,2.777-0.033,2.301-2.264
		c-0.479-2.232-9.91-2.059-14.574-2.902c-3.697-0.67-10.283-2.379-12.174-4.434c0,0,1.758-0.223,1.756-1.332
		c-0.005-2.822-4.07-2.004-8.958-3.416c-4.036-1.168-8.343-2.221-9.191-4.305c0,0,1.081-0.332,1.191-1.326
		c0.372-3.305-4.558-2.42-7.77-3.475c-2.811-0.926-10.19-4.279-10.046-6.959c0,0,1.748,0.955,2.493,0.123
		c1.64-1.834-1.544-2.549-4.881-3.344c-3.338-0.795-8.282-1.656-13.86-6.418c0,0,2.944-1.965,5.139-2.008
		c2.192-0.043-12.146-3.766-18.683-10.563c0,0,0.891-1.414,2.916-1.504c2.023-0.088-2.271-2.656-7.692-4.4s-6.219-4.135-7.494-5.406
		c0,0,4.146,1.039,5.525,0.133c1.546-1.016-11.873-6.301-15.778-12.156c0,0,2.041,0.98,3.498-0.652
		c1.343-1.504-5.605-3.361-8.783-5.854c0,0-3.733-2.732-4.53-4.008c0,0,0.702,0.498,2.333-0.834c1.63-1.33-0.402-0.377-3.24-2.367
		c-2.836-1.99-9.797-11.928-17.198-15.645S6.852,221.338,0,219.584c0,0,2.083-2.513,20.722,5.117c0,0,19.299,6.371,26.128,10.658
		c0,0-0.354-0.785-1.381-3.063c0,0,5.179,0.23,11.966,5.988c5.19,4.404,3.714,0.438,4.559-0.926c0,0,1.765-0.973,9.56,6.563
		c0,0,1.664,1.963,1.751,0.041c0.026-0.582,0.085-0.98-0.776-2.717c0,0,7.309,2.08,13.851,10.678c0,0,0.628-3.658-0.646-4.932
		c-1.275-1.275,7.239,1.443,14.172,9.732c5.587,6.682,5.269,1.422,4.153,0.148c0,0,7.139,0.637,14.211,11.74
		c0,0,2.285,3.609,3.57,1.287c0.702-1.27,0.544-2.191-0.252-2.988c0,0,5.895,2.713,12.065,11.117
		c0.757,1.021,2.567,2.113,3.444,0.219c0.35-0.938,0.267-2.152-0.85-2.92c0,0,7.802,3.754,13.382,14.322c0,0,1.749,2.92,2.344,0.355
		c0.209-0.904-0.047-1.168-1.004-2.441c0,0,3.876-0.797,12.026,11.664c0,0,1.746,3.027,3.753,0.973
		c0.397-0.428,0.18-1.029,0.18-1.029c0.502-0.236,1.98,0.861,5.698,5.932c5.665,7.727,7.149,11.307,9.688,10.063
		c0,0,0.621-0.389,0.466-1.404c0,0,3.505,5.098,10.676,13.385c0,0,11.974,12.627,15.628,13.564c0,0,3.433-0.611-2.071-7.467
		c-5.506-6.855-25.901-26.283-29.21-32.205c-3.31-5.922-9.548-8.27-14.541-13.992c-1.151-1.318-4.445-3.443-4.264-3.508
		c2.091-0.729,4.032-0.109,3.771-0.564c-0.434-0.76-1.614-0.752-7.035-4.84c0,0-8.267-6.043-9.223-8.92c0,0,2.728,0.383,2.475-1.012
		c-0.254-1.396-11.297-6.91-13.064-12.93c0,0,1.919,0.164,2.717-1.27c0.795-1.436-8.479-5.184-13.164-12.477
		c0,0-1.02-1.227-1.816-4.096c0,0,3.072,1.771,3.768-0.23c0,0-7.791-4.898-11.112-12.865c0,0,2.725,1.014,3.544,0
		c0.342-0.424,0.837-1.373,0.257-2.26c-1.747-2.669-11.96-6.651-14.144-13.805c0,0,4.676,0.25,3.477-1.469
		c0,0-11.445-8.412-11.763-12.555c0,0,4.144,0.956,5.418-1.116c0,0-12.646-10.712-13.938-17.732c0,0,4.068,0.689,4.335-1.291
		c0,0-8.829-6.85-9.938-12.989c0,0,4.159,1.166,4.375-0.229c0,0-9.056-9.826-9.215-14.606c0,0,4.11,1.453,4.226-0.21
		c0,0-7.728-7.502-7.112-12.675c0,0,3.434,0.631,1.928-2.04c-1.641-2.91-5.894-8.204-6.689-12.256c0,0,3.267,0.543,2.559-2.777
		c-0.709-3.322-4.055-7.149-3.992-13.544c0.063-6.396-6.477-28.394-11.525-34.753c0,0,14.083,13.41,23.721,32.208
		c0,0,2.014,5.245,4.231,5.568c0,0,0.942,0.164,0.146-1.588c0,0,5.842,4.29,8.259,13.748c0,0,1.083,5.417,1.875-0.542
		c0,0,1.978-0.697,5.962,9.381c0,0,1.83,4.744,3.233,2.966c0.567-0.718,0.431-1.491-0.366-2.926c0,0,5.63,3.329,7.243,12.294
		c0.088,0.486,1.123,2.434,2.11-2.732c0,0,4.609,4.058,7.38,18.005c0.068,0.343,0.672,2.736,3.788-2.277
		c0,0,1.988,1.554,4.607,8.039c0.819,2.029,1.25,4.969,2.28,7.945c0.304,1.097,1.613,4.071,2.221-3.07c0,0,4.795,3.646,4.474,11.834
		c-0.181,4.58,3.891,0.854,2.751-2.185c0,0,5.299,1.578,7.688,14.91c1.127,6.285,3.519,4.951,3.48,2.639
		c-0.041-2.544-0.262-3.61-0.262-3.61c0.429-0.284,4.075,2.253,4.815,6.575c0.915,5.351,0.646,9.89,2.058,10.33
		c2.55,0.797,2.415-1.251,2.258-3.004c0,0,5.101,8.358,4.94,16.414c-0.024,1.763,0.425,2.248,1.906,1.194
		c0.975-0.694,1.439-1.992,1.12-3.903c0,0,7.019,12.948,6.688,24.014c-0.041,1.375,1.292,1.959,1.931,0.162
		c0.507-1.246,0.611-2.746,0.304-4.416c-0.114-0.621,3.126,5.426,5.62,12.232c2.074,5.66,3.489,11.98,3.774,14.109
		c0.226,1.68,1.245,1.928,2.205,1.287c0.75-0.5,1.297-1.629,0.979-3.063c0,0,2.396,2.25,4.951,20.615
		c0.148,1.068,0.956,4.059,4.144,4.855c3.187,0.797,4.885,15.654,8.113,23.467c1.654,4.004,8.505,27.293,9.279,13.229
		c0,0,0.033-10.387-3.918-19.846c-3.953-9.457-0.821-8.898-3.69-15.332c-3.033-6.805-4.611-10.311-4.844-16.816
		c-0.029-0.828,0.416-1.879,0.416-1.879s2.703,3.746,3.234,1.479c0.652-2.787-7.794-16.49-6.997-21.432c0,0,4.431,2.961,3.888-1.07
		c-0.541-4.027-7.234-16.617-6.437-20.283c0,0,4.225,1.24,4.344-0.189c0.119-1.428-6.415-14.151-5.142-19.41
		c0,0,3.51,1.157,4.623-0.537c0,0-5.579-14.921-4.781-19.701c0,0,2.718,2.933,3.669,1.386s-5.283-13.743-4.246-21.066
		c0,0,4.248,6.547,5.042,3.233c0.793-3.313-5.556-17.17-3.471-22.553c0,0,2.928,3.072,3.676,1.683
		c1.192-2.21-5.064-9.844-1.853-18.18c0,0,1.68,1.6,2.521,2.722c2.07,2.768,1.528-0.09,1.246-1.892
		c-0.471-3.036-4.072-9.881-0.873-15.046c0,0,3.082,5.292,3.626,4.119c0.253-0.545,0.474-0.93-0.256-3.022
		c-2.552-7.32-0.769-13.257,0.666-18.834c0,0,2.691,7.649,2.445,1.253c-0.262-6.797-1.866-10.698,1.003-17.071
		c0,0,2.023,6.636,2.315,1.281c0,0,0.354-9.972,2.268-11.885c0,0,2.618,2.365,2.252-0.863s0.377-6.654,1.697-9.001
		c0,0,1.406,3.901,1.949-2.792c0.544-6.693,2.028,0.236,3.039-10.877c1.009-11.113,3.881-16.986,4.437-29.906
		C230.425,7.489,233.135,5.1,234.729,0c0,0-2.896,10.373-1.753,19.759c1.141,9.389,0.96,16.74,2.419,24.188
		c1.46,7.447,1.705,10.43,1.714,13.279c0.009,2.852,2.207-2.158,2.447,12.104c0,0,0.273,1.584,1.705,0.308
		c0,0,1.724,1.569,0.958,14.528c0,0-0.029,2.619,1.424,1.199c0.521-0.51,0.459-1.404,0.808-1.76c0,0,3.026,5.627,0.157,18.139
		c0,0-0.003,2.229,3.278-2.784c0,0,2.688,9.373-1.65,20.143c0,0-0.43,1.433,1.265,0.449c0.66-0.382,2.027-2.419,2.788-3.334
		c0,0,1.519,7.211-1.697,17.162c-1.882,5.823,0.306,3.893,2.377,1.661c0,0,1.519-1.859,3.11-1.701c0,0-2.19,7.311-3.481,13.701
		c-0.565,2.801-1.978,3.194-1.566,3.914c0,0,2.275,1.333,4.101-2.706c0,0,2.903,9.308-3.553,19.187
		c-4.1,6.272,1.69,3.263,3.905,1.377c0,0-0.025,6.741-4.38,16.627c0,0,2.088,0.325,3.493-1.688c0,0,1.149,12.378-5.862,23.533
		c0,0,3.131,1.312,4.886-0.441c0,0,2.043,6.056-5.115,18.962c-7.156,12.908,0.566,2.916,2.638,3.395c0,0-3.173,9.846-4.923,16.184
		c-1.046,3.791,3.042,0.602,3.042,0.602c0.286,0.289,0.369,1.59-0.755,3.988c-3.853,8.215-6.433,10.012-5.02,11.92
		c0.358,0.484,1.475,0.725,2.457-1.188c0,0,0.549,6.5-5.655,18.816c-5.494,10.906-2.617,11.883-4.592,18.529
		c-3.203,10.789-7.498,21.654-5.823,27.672c0,0,1.519,5.895,13.509-27.092c0,0,2.463-13.633,2.764-19.008
		c0,0,3.445-0.178,3.011-7.605c-0.435-7.424,0.637-13.863,1.913-15.617c0,0,2.864,5.764,3.981-0.305s0.051-12.955,3.188-17.701
		c0,0,2.444,3.436,2.788-0.607c0.342-4.043,0.267-10.24,2.485-15.333c0,0,3.385,4.419,4.438-3.336
		c1.054-7.758,0.808-12.753,2.719-15.94c0,0,4.172,6.526,5.053-1.565c0.882-8.093,0.913-11.093,3.622-14.439
		c0,0,0.979,6.104,3.479,1.292c1.75-4.875-0.375-9.063,4.941-15.857c0,0,3.582,4.225,4.738-2.501c0,0,0.55-8.073,2.903-11.245
		c0,0,3.586,6.672,4.534-2.689c0.721-7.117,2.4-9.165,3.748-10.342c0,0,1.759,8.685,2.663,2.41
		c0.907-6.277,4.495-14.98,6.886-16.733c0,0,0.286,5.436,2.205,4.691c1.917-0.745,0.099-10.339,5.151-15.2
		c0,0,0.503,4.188,2.075,3.056s1.684-7.76,5.123-11.644c0,0,0.565,6.856,1.919,3.715c1.354-3.142,0.826-10.979,5.767-13.846
		c0,0-0.549,6.018,1.425,2.943c1.625-2.536,3.654-9.947,5.297-10.299c0,0-1.083,2.354,0.343,2.533c0,0,3.482-9.473,9.309-16.255
		c5.827-6.779,6.545-14.333,11.522-19.002c0,0-7.384,19.566-8.531,27.686c-1.148,8.12-4.877,12.709-1.977,12.486
		c0,0,0.987-0.224,1.784-2.293c0,0-0.328,5.742-4.308,12.034c0,0-0.658,2.395,3.699-0.487c0,0,1.251,4.722-5.25,13.075
		c-6.517,8.372-0.11,3.617,1.761,0.264c0,0,3.493,4.187-5.017,17.268c-5.75,8.839,1.498,2.158,2.64,1.656
		c0,0,1.075,5.722-4.512,13.703c-5.588,7.981-1.451,5.555,1.255,3.019c0,0,0.488,9.265-4.77,14.205
		c-5.26,4.941-2.043,5.275,0.334,3.991c0,0-1.13,8.917-8.144,12.901c-7.011,3.983-1.604,4.877,0.22,4.327
		c0,0-0.062,5.395-6.594,9.697c-6.532,4.301-0.529,3.219,1.249,3.521c0,0-2.368,7.261-7.781,9.386
		c-4.832,1.896-0.646,3.24,1.032,3.136c0,0-3.347,9.427-12.27,14.843c0,0-0.564,2.895,3.88,2.117c0,0,0.026,1.578-9.057,10.182
		c-9.084,8.604-4.008,6.391-2.302,6.297c0,0-4.921,8.18-10.117,11.361c-1.172,0.715-1.863,1.861,0.93,1.549
		c0,0-2.056,7.404-11.139,15.055c0,0-3.63,2.662-2.149,5.768c0,0-8.05,7.299-18.726,22.596
		c-10.677,15.301-17.689,19.125-20.239,28.207c0,0,4.906-0.279,17.114-16.234c0,0,7.38-12.174,10.772-13.883
		c0,0,0.604,3.945,1.8,1.479c1.196-2.469,8.83-17.617,12.813-19.529c0,0,1.564,3.967,2.966,1.311
		c0.419-0.795,5.847-16.006,9.035-17.561c0,0,3.019,6.842,4.696,2.453c1.587-4.152,1.722-7.27,8.081-13.088
		c0,0-0.076,7.775,4.754,2.434c3.746-4.143,4.302-11.359,8.763-14.867c0,0,0.495,8.443,2.708,4.781
		c2.213-3.66,4.94-10.996,9.242-12.748c0,0,0.302,7.82,4.304,4.145c3.917-3.598,8.286-10.52,12.589-11.953
		c0,0-0.583,6.182,3.028,4.143c3.611-2.037,11.525-12.215,15.986-13.33c0,0-1.196,5.119,1.701,4.088s10.518-10.197,14.183-10.677
		c0,0-2.504,2.762,1.004,3.271c3.508,0.51,6.227-7.229,13.978-7.017c0,0-1.604,1.519-0.093,2.464
		c1.771,1.105,7.156-0.518,20.286-7.819c10.138-5.636,20.124-7.948,23.15-9.064c0,0-9.065,3.968-13.227,9.243
		c-4.161,5.274-15.881,20.175-23.876,24.349c0,0-0.665,1.783,1.885,0.988c0,0-3.518,5.387-10.678,8.926
		c-0.9,0.441-1.254,1.156-1.131,1.662c0.098,0.406,0.662,0.815,2.124,0.136c0,0-2.314,3.651-5.335,5.675
		c-2.17,1.453-3.771,2.48-4.893,3.006c-1.093,0.512-1.683,0.749-1.903,1.31c-0.078,0.198-0.136,0.543,0.109,0.774
		c0.272,0.258,1.098,0.686,2.983-1.132c0,0,0.459,4.468-13.301,10.19c0,0-1.265,0.532-0.442,1.775
		c0.288,0.436,1.239,0.717,2.392-0.523c0,0-0.514,4.291-8.428,6.822c-6.973,2.23-7.467,3.976-7.394,4.723
		c0.06,0.609,1.144,0.934,2.925,0.184c0,0,0.326,5.723-12.706,9.717c-11.189,3.43-7.942,3.443-5.783,4.326
		c2.799,1.145,2.923,1.683,2.313,1.938s-11.695,3.98-15.591,6.305c-1.813,1.082-4.158,3.716,2.133,4.216
		c0,0-9.415,6.304-21.892,7.896c-2.359,0.301-3.786,0.854,0,3.346c0,0-4.462,2.709-14.183,6.215s-14.343,9.402-25.338,12.588
		c-10.996,3.188-24.897,6.854-29.519,13.068c0,0,10.98-1.799,17.54-4.803c6.562-3.006,8.154-2.527,10.384-2.686
		c2.232-0.16-0.666,2.961,4.104,1.404c4.769-1.559,9.282-3,13.266-3.158c0,0-1.521,3.639,2.648,2.336
		c4.171-1.305,12.013-5.523,15.201-4.727c0,0-2.529,4.539,0.784,3.77c1.229-0.287,8.294-3.605,11.161-2.172
		c0,0-1.751,3.523,1.625,2.816c3.374-0.709,6.902-0.742,11.067-0.021c0,0-1.307,0.221-1.506,1.129
		c-0.164,0.752,0.718,1.313,1.594,1.256c1.934-0.125,6.469-1.352,9.763,0.545c0,0,0.236,1.695,3.473,1.885
		c3.237,0.188,5.802,0.277,11.01,3.023c5.21,2.75,28.635,5.777,37.717,15.656c0,0-3.664,0.955-17.369-0.477
		c-13.705-1.436-19.153,1.611-29.098,4.789c-9.945,3.178-13.609,1.744-18.71,2.381c0,0,1.117,3.186,3.188,2.072
		c2.072-1.115-3.746,5.582-15.5,1.035c0,0-4.595-1.836-3.941,0.238c0.229,0.73,2.201,0.982,2.92,1.322c0,0-4.248,1.615-14.553-2.756
		c-2.788-1.182-9.761-2.891-9.881-1.275c0,0,1.279,1.115,3.028,1.752c0,0-12.105-0.518-16.891-3.346
		c-1.24-0.723-2.71-1.115-2.869-0.158c0,0,0.159,1.594,1.594,1.594c0,0-3.825,3.504-19.761-7.648c0,0-10.518-9.402-19.122-6.057
		s-6.653,2.098-7.331,7.809c-0.677,5.711-1.94,55.234-7.583,58.85c0,0-1.011,0.887-1.749,0.283
		c-0.764-0.623-1.238-2.791-0.121-6.418c0.295-0.961,4.508-23.717,4.922-44.369C222.479,371.68,223.218,364.528,221.395,363.118z"/>
</g>
<g id="Ebene_6" display="none">
</g>
</svg>
